<svg width="38" height="38" viewBox="0 0 38 38" fill="none" xmlns="http://www.w3.org/2000/svg">
<path d="M31.172 4H22V0H38V16H34V6.828L26.926 13.902C29.2337 16.927 30.3056 20.716 29.9247 24.5017C29.5438 28.2873 27.7385 31.7868 24.8744 34.2914C22.0103 36.7961 18.3014 38.1187 14.4987 37.9915C10.6961 37.8644 7.08385 36.2969 4.39347 33.6065C1.70308 30.9161 0.13561 27.3039 0.0084487 23.5013C-0.118713 19.6986 1.20394 15.9897 3.70858 13.1256C6.21322 10.2615 9.71267 8.45621 13.4983 8.07529C17.284 7.69437 21.073 8.76629 24.098 11.074L31.172 4Z" fill="url(#paint0_linear_2_1591)"/>
<defs>
<linearGradient id="paint0_linear_2_1591" x1="-3.5764" y1="-7.53448" x2="43.0257" y2="0.231483" gradientUnits="userSpaceOnUse">
<stop stop-color="#9DFE00"/>
<stop offset="1" stop-color="#14D9E6"/>
</linearGradient>
</defs>
</svg>
