<svg width="24" height="24" viewBox="0 0 24 24" fill="none" xmlns="http://www.w3.org/2000/svg">
<path d="M9.33333 4V6.66667H2.66667V21.3333H17.3333V14.6667H20V22.6667C20 23.0203 19.8595 23.3594 19.6095 23.6095C19.3594 23.8595 19.0203 24 18.6667 24H1.33333C0.979711 24 0.640573 23.8595 0.390524 23.6095C0.140476 23.3594 0 23.0203 0 22.6667V5.33333C0 4.97971 0.140476 4.64057 0.390524 4.39052C0.640573 4.14048 0.979711 4 1.33333 4H9.33333ZM24 0V12L18.9413 6.94267L10.9427 14.9427L9.05733 13.0573L17.056 5.05733L12 0H24Z" fill="white"/>
</svg>
