<svg width="33" height="42" fill="none" xmlns="http://www.w3.org/2000/svg"><path d="M14 31.876A16.002 16.002 0 0 1 16 0a16 16 0 0 1 2 31.876v4.148c7.892.184 14 1.446 14 2.976 0 1.656-7.164 3-16 3S0 40.656 0 39c0-1.53 6.108-2.792 14-2.976v-4.148ZM16 20a4 4 0 1 0 0-8 4 4 0 0 0 0 8Z" fill="url(#a)"/><defs><linearGradient id="a" x1="-3.013" y1="-8.328" x2="36.695" y2="-3.284" gradientUnits="userSpaceOnUse"><stop stop-color="#9DFE00"/><stop offset="1" stop-color="#14D9E6"/></linearGradient></defs></svg>