<svg width="33" height="42" viewBox="0 0 33 42" fill="none" xmlns="http://www.w3.org/2000/svg">
<path d="M14 31.876C9.96542 31.3626 6.27771 29.3323 3.68638 26.1976C1.09505 23.0629 -0.205441 19.0591 0.0492411 14.9999C0.303923 10.9408 2.09466 7.13098 5.05749 4.34476C8.02032 1.55855 11.9329 0.00504602 16 4.44171e-06C20.0721 -0.00302791 23.9921 1.54668 26.9613 4.33336C29.9305 7.12004 31.7255 10.934 31.9805 14.9981C32.2355 19.0622 30.9313 23.0706 28.3337 26.2065C25.7361 29.3425 22.0405 31.37 18 31.876V36.024C25.892 36.208 32 37.47 32 39C32 40.656 24.836 42 16 42C7.164 42 0 40.656 0 39C0 37.47 6.108 36.208 14 36.024V31.876ZM16 20C17.0609 20 18.0783 19.5786 18.8284 18.8284C19.5786 18.0783 20 17.0609 20 16C20 14.9391 19.5786 13.9217 18.8284 13.1716C18.0783 12.4214 17.0609 12 16 12C14.9391 12 13.9217 12.4214 13.1716 13.1716C12.4214 13.9217 12 14.9391 12 16C12 17.0609 12.4214 18.0783 13.1716 18.8284C13.9217 19.5786 14.9391 20 16 20Z" fill="url(#paint0_linear_2_1576)"/>
<defs>
<linearGradient id="paint0_linear_2_1576" x1="-3.01289" y1="-8.3276" x2="36.6953" y2="-3.28409" gradientUnits="userSpaceOnUse">
<stop stop-color="#9DFE00"/>
<stop offset="1" stop-color="#14D9E6"/>
</linearGradient>
</defs>
</svg>
