<svg width="40" height="40" fill="none" xmlns="http://www.w3.org/2000/svg"><path d="M20 40C8.954 40 0 31.046 0 20S8.954 0 20 0s20 8.954 20 20-8.954 20-20 20Zm12.71-12.096v-.21c0-1.844 0-2.686-1.304-3.432a14.75 14.75 0 0 0-1.29-.65c-.734-.334-1.22-.552-1.876-1.512a24.062 24.062 0 0 1-.232-.344c-.69-1.05-1.188-1.806-3.084-1.506-3.73.592-4.006 1.248-4.17 2.356l-.026.182c-.242 1.62-.286 2.164.39 2.874 2.53 2.654 4.046 4.568 4.506 5.688.224.546.8 2.2.404 3.836a16.37 16.37 0 0 0 6.302-4.474c.22-.748.38-1.68.38-2.808ZM20 3.666A16.29 16.29 0 0 0 8.208 8.698c.354.246.662.592.874 1.068.408.914.408 1.856.408 2.69 0 .656 0 1.28.21 1.73.288.616 1.532.88 2.63 1.108.394.084.798.168 1.166.27 1.012.28 1.796 1.19 2.422 1.92.26.302.646.748.84.86.1-.072.422-.422.58-.996.124-.44.088-.828-.09-1.04-1.12-1.32-1.058-3.86-.712-4.798.544-1.478 2.244-1.368 3.488-1.288.464.03.9.06 1.228.018 1.244-.156 1.628-2.05 1.898-2.42.584-.8 2.372-2.006 3.48-2.75A16.276 16.276 0 0 0 20 3.666Z" fill="url(#a)"/><defs><linearGradient id="a" x1="-3.765" y1="-7.931" x2="45.29" y2=".244" gradientUnits="userSpaceOnUse"><stop stop-color="#9DFE00"/><stop offset="1" stop-color="#14D9E6"/></linearGradient></defs></svg>