<svg width="36" height="40" fill="none" xmlns="http://www.w3.org/2000/svg"><path d="M6.764 3.936A17.924 17.924 0 0 1 18 0c4.25 0 8.156 1.472 11.236 3.936l2.906-2.906 2.828 2.828-2.906 2.906A17.924 17.924 0 0 1 36 18v2H0v-2c0-4.25 1.472-8.156 3.936-11.236L1.03 3.86l2.828-2.828 2.906 2.906v-.002ZM0 24h36v14a2 2 0 0 1-2 2H2a2 2 0 0 1-2-2V24Zm12-10a2 2 0 1 0 0-4 2 2 0 0 0 0 4Zm12 0a2 2 0 1 0 0-4 2 2 0 0 0 0 4Z" fill="url(#a)"/><defs><linearGradient id="a" x1="-3.388" y1="-7.931" x2="40.989" y2="-1.275" gradientUnits="userSpaceOnUse"><stop stop-color="#9DFE00"/><stop offset="1" stop-color="#14D9E6"/></linearGradient></defs></svg>